<svg
  xmlns="http://www.w3.org/2000/svg"
  viewBox="0 0 100 100"
  width="200"
  height="200"
  style="background-color: #000000;"
>
  <!-- Peepal Leaf -->
  <path
    d="M50 10C35 20 30 40 30 55C30 70 50 90 50 70C50 90 70 70 70 55C70 40 65 20 50 10Z"
    fill="#4CAF50"
  />
  
  <!-- Shopping Cart -->
  <svg
    xmlns="http://www.w3.org/2000/svg"
    fill="none"
    viewBox="0 0 24 24"
    stroke-width="1.5"
    stroke="white"
    class="size-6"
    x="35"
    y="30"
    width="30"
    height="30"
  >
    <path
      stroke-linecap="round"
      stroke-linejoin="round"
      d="M2.25 3h1.386c.51 0 .955.343 1.087.835l.383 1.437M7.5 14.25a3 3 0 0 0-3 3h15.75m-12.75-3h11.218c1.121-2.3 2.1-4.684 2.924-7.138a60.114 60.114 0 0 0-16.536-1.84M7.5 14.25 5.106 5.272M6 20.25a.75.75 0 1 1-1.5 0 .75.75 0 0 1 1.5 0Zm12.75 0a.75.75 0 1 1-1.5 0 .75.75 0 0 1 1.5 0Z"
    />
  </svg>
</svg>
<svg
  xmlns="http://www.w3.org/2000/svg"
  viewBox="0 0 100 100"
  width="200"
  height="200"
  style="background-color: #000000;"
>
  <!-- Peepal Leaf -->
  <path
    d="M50 10C35 20 30 40 30 55C30 70 50 90 50 70C50 90 70 70 70 55C70 40 65 20 50 10Z"
    fill="#4CAF50"
  />
  
  <!-- Shopping Cart -->
  <svg
    xmlns="http://www.w3.org/2000/svg"
    fill="none"
    viewBox="0 0 24 24"
    stroke-width="1.5"
    stroke="white"
    class="size-6"
    x="35"
    y="30"
    width="30"
    height="30"
  >
    <path
      stroke-linecap="round"
      stroke-linejoin="round"
      d="M2.25 3h1.386c.51 0 .955.343 1.087.835l.383 1.437M7.5 14.25a3 3 0 0 0-3 3h15.75m-12.75-3h11.218c1.121-2.3 2.1-4.684 2.924-7.138a60.114 60.114 0 0 0-16.536-1.84M7.5 14.25 5.106 5.272M6 20.25a.75.75 0 1 1-1.5 0 .75.75 0 0 1 1.5 0Zm12.75 0a.75.75 0 1 1-1.5 0 .75.75 0 0 1 1.5 0Z"
    />
  </svg>
</svg>
